<svg xmlns="http://www.w3.org/2000/svg" version="1.1" xmlns:xlink="http://www.w3.org/1999/xlink" width="1500" height="1500" viewBox="0 0 1500 1500"><rect width="1500" height="1500" x="0" y="0" id="background" stroke="transparent" fill="#000000"></rect><svg xml:space="preserve" width="1000" height="1000" data-version="2" data-id="lg_u956t0qUmDZm4Er92e" viewBox="0 0 374 61" x="250" y="250"><rect width="100%" height="100%" fill="transparent"></rect><path fill="#b7b7b7" d="M108.863 16.81q-2.73-.89-3.99-1.16-1.89-.36-4.83-.36-2.89 0-5.93 1.2-2.63 1.05-4.52 3-1.78 1.78-2.78 4.49-1 2.7-1 6.11 0 6.67 3.94 10.76 1.89 1.89 4.67 3.05 2.78 1.15 6.09 1.15 4.83 0 8.66-1.89l-.84-2.73q-3.72 1.42-6.77 1.42-3.67 0-6.46-1.52-2.52-1.47-3.99-4.12-1.47-2.65-1.47-6.17 0-3.62 1.29-6.27 1.29-2.66 3.7-4.07 2.31-1.26 6.41-1.26 2.04 0 3.49.29 1.44.28 3.33.91z"></path><rect width="23.36" height="29.76" x="-11.68" y="-14.88" fill="none" rx="0" ry="0" transform="translate(98 30.67)"></rect><path fill="#b7b7b7" d="M119.573 55.4h-3.52l3.89-9.77-8.09-21.21h3.57l6.2 16.7 6.19-16.7h3.26Z"></path><rect width="19.22" height="30.98" x="-9.61" y="-15.49" fill="none" rx="0" ry="0" transform="translate(121.96 40.41)"></rect><path fill="#b7b7b7" d="M135.373 44.58V16.65h3.41v8.3q2.05-.95 4.89-.95 4.25 0 6.93 2.52 2.78 2.78 2.78 8.19 0 4.67-2.39 7.48-2.39 2.81-6.85 2.81-2.94 0-5.72-1.84l-.63 1.42Zm7.93-2.47q3.36 0 4.93-1.83 1.58-1.84 1.58-5.78 0-3.52-1.66-5.62-1.65-2.1-4.9-2.1-2.47 0-4.47.79v13.34q1.21.63 2.18.92.97.28 2.34.28"></path><rect width="18.01" height="28.35" x="-9.01" y="-14.18" fill="none" rx="0" ry="0" transform="translate(144.88 31.32)"></rect><path fill="#b7b7b7" d="M166.403 24.16q3.99 0 6.14 2.39 2.15 2.39 2.15 6.74v1.84l-.21.42h-13.8q0 2.57 1.94 4.78 1.84 1.84 5.72 1.84 2.57 0 4.88-.79l.63 2.52q-3.2 1.1-6.45 1.1-4.89 0-7.46-2.62-2.57-2.63-2.57-7.51 0-4.62 2.26-7.61 2.41-3.1 6.77-3.1m4.83 8.66q0-2.62-1.13-4.3-1.13-1.68-3.33-1.68-2.79 0-4.26 1.68-1.47 1.68-1.78 4.3z"></path><rect width="17.32" height="20.84" x="-8.66" y="-10.42" fill="none" rx="0" ry="0" transform="translate(166.53 35.08)"></rect><path fill="#b7b7b7" d="M188.243 24.16q1.15 0 1.86.13.71.13 1.39.45l-1.2 3.04q-1.37-.63-3-.63-2.2 0-4.35 1.47v15.96h-3.42V24.42h2.47l.74 1.73q2.62-1.99 5.51-1.99"></path><rect width="11.97" height="20.42" x="-5.99" y="-10.21" fill="none" rx="0" ry="0" transform="translate(186 34.87)"></rect><path fill="#b7b7b7" d="M201.263 42.17q1.84 0 3.12-.71 1.29-.71 1.29-2.08 0-1.1-.95-1.73-.94-.63-3.99-1.89l-1.99-.79q-1.31-.63-2.15-1.12-.84-.5-1.53-1.53-.68-1.02-.68-2.6 0-2.83 2.34-4.2 2.33-1.36 5.75-1.36 2.88 0 5.77 1.31l-.84 2.52q-2.36-1-4.57-1-2.25 0-3.65.66-1.39.66-1.39 1.86 0 1.21.97 1.89.98.69 3.34 1.58l1.73.68q2.89 1.21 4.04 2.52 1.16 1.31 1.16 3.47 0 2.2-2.05 3.8-2.05 1.6-5.46 1.6-3.88 0-7.66-1.52l.94-2.57q3.41 1.21 6.46 1.21"></path><rect width="15.17" height="20.89" x="-7.58" y="-10.45" fill="none" rx="0" ry="0" transform="translate(201.95 35.1)"></rect><path fill="#b7b7b7" d="M222.423 24.16q3.99 0 6.14 2.39 2.15 2.39 2.15 6.74v1.84l-.21.42h-13.81q0 2.57 1.95 4.78 1.83 1.84 5.72 1.84 2.57 0 4.88-.79l.63 2.52q-3.2 1.1-6.46 1.1-4.88 0-7.45-2.62-2.57-2.63-2.57-7.51 0-4.62 2.25-7.61 2.42-3.1 6.78-3.1m4.83 8.66q0-2.62-1.13-4.3-1.13-1.68-3.34-1.68-2.78 0-4.25 1.68-1.47 1.68-1.78 4.3z"></path><rect width="17.32" height="20.84" x="-8.66" y="-10.42" fill="none" rx="0" ry="0" transform="translate(222.55 35.08)"></rect><path fill="#b7b7b7" d="M244.363 45.05q-4.67 0-7.22-2.67-2.54-2.68-2.54-7.51 0-4.52 2.62-7.77 2.63-2.94 7.82-2.94 2.58 0 5.15 1.1l-.84 2.52q-1.84-.79-4.15-.79-3.57 0-5.35 1.87-1.79 1.86-1.79 5.38 0 4.51 2.15 6.25 2.16 1.73 5.31 1.73 1.99 0 3.83-.68l.79 2.36q-3.05 1.15-5.78 1.15"></path><rect width="15.59" height="20.89" x="-7.79" y="-10.45" fill="none" rx="0" ry="0" transform="translate(242.9 35.1)"></rect><path fill="#b7b7b7" d="M274.183 41.43q3.15 0 5.25-1.13t2.1-3.33q0-1.94-1.68-3.1-1.68-1.15-4.83-2.31l-1.21-.47q-3.93-1.58-5.88-3.26-1.94-1.68-1.94-4.67 0-3.94 2.57-5.93 1.53-1.16 3.21-1.65 1.68-.5 3.93-.5 3.21 0 7.93 1.99l-1 3.1q-4.2-1.68-6.51-1.68-3.04 0-4.8 1.13-1.76 1.13-1.76 3.17 0 1.42.92 2.42t2.05 1.55q1.13.55 3.17 1.39.84.37 1.53.58 2.73 1.1 4.27 1.97 1.55.86 2.66 2.33 1.1 1.47 1.1 3.73 0 4.04-3.26 6.14-3.25 2.1-7.92 2.1-2.42 0-3.99-.42-1.58-.42-4.78-1.52l1.21-3.36q4.62 1.73 7.66 1.73"></path><rect width="19.95" height="29.92" x="-9.97" y="-14.96" fill="none" rx="0" ry="0" transform="translate(275.79 30.54)"></rect><path fill="#b7b7b7" d="M290.513 24.42h2.41l.69 1.52q2.57-1.78 5.67-1.78 2.94 0 4.98 1.26 4.36 2.73 4.36 8.87 0 5.25-2.94 8.09-2.89 2.73-6.88 2.73-2.57 0-4.88-1V55.5h-3.41Zm7.93 2.57q-1.47 0-2.45.27-.97.26-2.07.94v13.23q2.05.95 4.46.95 3.15 0 4.89-2.16 1.73-2.15 1.73-5.56 0-3.52-1.68-5.59-1.68-2.08-4.88-2.08"></path><rect width="18.11" height="31.34" x="-9.05" y="-15.67" fill="none" rx="0" ry="0" transform="translate(300.07 40.33)"></rect><path fill="#b7b7b7" d="M320.013 27.1q-1.1 0-2.65.24-1.55.23-2.75.6l-.69-2.52q3.52-1.21 6.57-1.21 3.41 0 5.19 1.05 1.58 1.16 2.18 2.47.61 1.31.61 3.83v13.02h-2.58l-.73-1.89q-2.99 2.42-6.14 2.42-2.73 0-4.6-1.58-1.86-1.57-1.86-3.99 0-2.36 1.44-3.91 1.45-1.55 3.55-2.07 2.67-.69 7.5-.79v-.16q0-2.15-.42-3.15-.84-2.36-4.62-2.36m-.52 15.28q1.73 0 3.04-.61 1.32-.6 2.52-1.7v-4.83q-3.62.05-5.35.42-1.94.42-2.89 1.23-.94.81-.94 2.28 0 1.53 1.07 2.37 1.08.84 2.55.84"></path><rect width="15.91" height="20.9" x="-7.96" y="-10.45" fill="none" rx="0" ry="0" transform="translate(321.02 35.16)"></rect><path fill="#b7b7b7" d="M342.963 45.05q-4.68 0-7.22-2.67-2.55-2.68-2.55-7.51 0-4.52 2.63-7.77 2.62-2.94 7.82-2.94 2.57 0 5.14 1.1l-.84 2.52q-1.83-.79-4.14-.79-3.57 0-5.36 1.87-1.78 1.86-1.78 5.38 0 4.51 2.15 6.25 2.15 1.73 5.3 1.73 2 0 3.83-.68l.79 2.36q-3.04 1.15-5.77 1.15"></path><rect width="15.59" height="20.89" x="-7.79" y="-10.45" fill="none" rx="0" ry="0" transform="translate(341.49 35.1)"></rect><path fill="#b7b7b7" d="M361.283 24.16q3.99 0 6.14 2.39 2.15 2.39 2.15 6.74v1.84l-.21.42h-13.8q0 2.57 1.94 4.78 1.84 1.84 5.72 1.84 2.57 0 4.88-.79l.63 2.52q-3.2 1.1-6.45 1.1-4.89 0-7.46-2.62-2.57-2.63-2.57-7.51 0-4.62 2.26-7.61 2.41-3.1 6.77-3.1m4.83 8.66q0-2.62-1.13-4.3-1.13-1.68-3.33-1.68-2.79 0-4.26 1.68-1.47 1.68-1.78 4.3z"></path><rect width="17.32" height="20.84" x="-8.66" y="-10.42" fill="none" rx="0" ry="0" transform="translate(361.41 35.08)"></rect><path fill="#7f7f7f" d="M56.335.457a7.95 7.95 0 0 0-7.973 7.973c0 .87.145 1.74.435 2.61L36.983 22.853c-.943-.435-2.03-.653-3.117-.653-4.421 0-7.973 3.552-7.973 7.973s3.552 7.973 7.973 7.973 7.973-3.552 7.973-7.973c0-1.74-.58-3.262-1.45-4.566l10.945-10.945a8.052 8.052 0 0 0 5 1.74c4.422 0 7.974-3.552 7.974-7.973S60.756.457 56.335.457M33.866 33.798c-2.03 0-3.624-1.595-3.624-3.624s1.595-3.624 3.624-3.624 3.624 1.595 3.624 3.624-1.595 3.624-3.624 3.624m22.469-21.744c-2.03 0-3.624-1.595-3.624-3.624s1.594-3.624 3.624-3.624 3.624 1.595 3.624 3.624-1.595 3.624-3.624 3.624"></path><path fill="#7f7f7f" d="M33.866 16.403c4.421 0 7.973-3.552 7.973-7.973S38.287.457 33.866.457 25.893 4.01 25.893 8.43s3.552 7.973 7.973 7.973m0-11.597c2.03 0 3.624 1.595 3.624 3.624s-1.595 3.624-3.624 3.624-3.624-1.595-3.624-3.624 1.595-3.624 3.624-3.624m22.469 17.395c-4.421 0-7.973 3.552-7.973 7.973s3.552 7.973 7.973 7.973 7.973-3.552 7.973-7.973-3.552-7.973-7.973-7.973m0 11.597c-2.03 0-3.624-1.595-3.624-3.624s1.594-3.624 3.624-3.624 3.624 1.595 3.624 3.624-1.595 3.624-3.624 3.624M11.397 59.891c4.421 0 7.973-3.552 7.973-7.973s-3.552-7.973-7.973-7.973-7.973 3.552-7.973 7.973 3.552 7.973 7.973 7.973m0-11.597c2.03 0 3.624 1.595 3.624 3.624s-1.594 3.624-3.624 3.624-3.624-1.595-3.624-3.624 1.595-3.624 3.624-3.624"></path><path fill="#7f7f7f" d="M56.335 43.945c-3.624 0-6.74 2.465-7.683 5.799h-7.176a7.957 7.957 0 0 0-7.682-5.799c-2.175 0-4.204.87-5.654 2.32L17.268 35.393c1.377-1.378 2.102-3.19 2.102-5.219 0-3.624-2.464-6.74-5.798-7.683v-6.45a7.957 7.957 0 0 0 5.798-7.683c0-4.422-3.552-7.973-7.973-7.973S3.424 4.009 3.424 8.43c0 3.624 2.465 6.74 5.799 7.683v6.45c-3.334.87-5.799 3.987-5.799 7.611a7.95 7.95 0 0 0 7.973 7.973c.797 0 1.522-.145 2.247-.29l12.467 12.466a5.652 5.652 0 0 0-.218 1.595 7.95 7.95 0 0 0 7.973 7.973c3.624 0 6.74-2.465 7.683-5.799h7.175a7.957 7.957 0 0 0 7.683 5.799c4.422 0 7.973-3.552 7.973-7.973s-3.624-7.973-8.045-7.973M7.773 8.43c0-2.03 1.595-3.624 3.624-3.624s3.624 1.595 3.624 3.624-1.594 3.624-3.624 3.624-3.624-1.595-3.624-3.624m0 21.744c0-2.03 1.595-3.624 3.624-3.624s3.624 1.595 3.624 3.624-1.594 3.624-3.624 3.624-3.624-1.595-3.624-3.624m26.093 25.368c-2.03 0-3.624-1.595-3.624-3.624s1.595-3.624 3.624-3.624 3.624 1.595 3.624 3.624-1.595 3.624-3.624 3.624m22.469 0c-2.03 0-3.624-1.595-3.624-3.624s1.594-3.624 3.624-3.624 3.624 1.595 3.624 3.624-1.595 3.624-3.624 3.624"></path></svg></svg>