<?xml version="1.0" encoding="UTF-8"?>
<!-- Generator: visioncortex VTracer -->
<svg id="svg" version="1.1" xmlns="http://www.w3.org/2000/svg" style="display: block;" viewBox="0 0 378 61"><path d="M0 0 C2.375 1 2.375 1 4 3 C4.90495879 5.71487636 5.24991453 8.14542072 5 11 C3.1875 14 3.1875 14 1 16 C0.34 16 -0.32 16 -1 16 C-0.7180969 20.04061117 -0.39699832 21.61268457 2.5625 24.5 C5 27 5 27 5.375 30.125 C5 33 5 33 4 36 C8.17519492 41.53692876 8.17519492 41.53692876 14.13671875 44.23828125 C16.1036342 43.88985623 18.05308044 43.446834 20 43 C23.91973067 44.02253843 24.70689866 44.56034798 27 48 C29.9149255 48.5838196 29.9149255 48.5838196 33 48 C34.3743291 46.70896357 35.70896357 45.3743291 37 44 C39.99042163 42.92651531 41.54765605 42.88152897 44.625 43.6875 C47.35945499 45.19864618 48.54126742 46.23608564 50 49 C50.68543938 53.02695637 50.34966143 54.49736169 48 57.875 C43.88768289 60.78789129 41.96025717 60.64003318 37 60 C35 58.625 35 58.625 34 57 C34 56.34 34 55.68 34 55 C28.96903498 55.24007856 28.96903498 55.24007856 25.0625 58.0625 C22.73374858 60.25011497 22.07951901 60.35821736 19 60.5 C16.1382783 60.33541118 15.12550037 60.08479755 12.6875 58.4375 C11 56 11 56 9.8125 52.8125 C7.48315899 46.95116909 2.35151078 41.67864962 -3.26171875 38.8671875 C-5.15955354 38.20066511 -7.078913 37.59619941 -9 37 C-11.71068293 34.82645701 -11.96579487 34.2308846 -12.5 30.625 C-11.87450543 26.09016437 -10.2427255 25.08454377 -7 22 C-6.12010026 18.81849108 -6.12010026 18.81849108 -6 16 C-6.928125 15.8453125 -6.928125 15.8453125 -7.875 15.6875 C-10 15 -10 15 -12 12 C-12.56551375 7.63746537 -12.49322651 5.70247412 -9.9375 2.0625 C-6.27096589 -0.51187502 -4.39593437 -0.63940864 0 0 Z M-4 5 C-4.99 5.99 -5.98 6.98 -7 8 C-6.67 8.99 -6.34 9.98 -6 11 C-4.35 11 -2.7 11 -1 11 C-1 9.35 -1 7.7 -1 6 C-1.99 5.67 -2.98 5.34 -4 5 Z M-5 27 C-5.66 28.32 -6.32 29.64 -7 31 C-6.34 31.66 -5.68 32.32 -5 33 C-2.89179203 32.6814823 -2.89179203 32.6814823 -1 32 C-1.33 30.35 -1.66 28.7 -2 27 C-2.99 27 -3.98 27 -5 27 Z M17 49 C16.67 50.65 16.34 52.3 16 54 C17.32 54.33 18.64 54.66 20 55 C21.10836423 53.11683841 21.10836423 53.11683841 22 51 C21.67 50.34 21.34 49.68 21 49 C19.68 49 18.36 49 17 49 Z M40 49 C39.34 50.32 38.68 51.64 38 53 C38.66 53.66 39.32 54.32 40 55 C42.10820797 54.6814823 42.10820797 54.6814823 44 54 C43.67 52.35 43.34 50.7 43 49 C42.01 49 41.02 49 40 49 Z " transform="translate(18,0)" style="fill: #6D8957;"/><path d="M0 0 C3.27522945 2.15475621 3.90229594 3.6641423 5 7.4375 C5 11 5 11 3.5 13.875 C-0.2118221 17.03004878 -3.78019072 16.88900954 -8.5 17.125 C-12.68905056 18.59116769 -15.59293183 21.29311502 -18 25 C-18.31677104 27.41639451 -18.19799323 29.55644621 -18.00390625 31.98046875 C-18 34 -18 34 -19.625 36.5 C-22.56874992 38.35921047 -24.51270927 38.9288308 -28 39 C-30.86332091 37.76356597 -32.49288133 36.66847461 -34.375 34.1875 C-35.26089715 31.08685996 -34.89945179 29.08383471 -34 26 C-32.375 23.6875 -32.375 23.6875 -30 22 C-28.90558594 21.89429687 -27.81117187 21.78859375 -26.68359375 21.6796875 C-20.37618397 20.51586003 -16.81398801 15.92906458 -13 11 C-11.90729712 8.28864598 -11.50938954 5.90352037 -11 3 C-7.90307389 -0.67043094 -4.59747777 -0.57468472 0 0 Z M-4 5 C-5.485 5.99 -5.485 5.99 -7 7 C-6.67 8.32 -6.34 9.64 -6 11 C-4.35 10.67 -2.7 10.34 -1 10 C-1 8.68 -1 7.36 -1 6 C-1.99 5.67 -2.98 5.34 -4 5 Z M-27 27 C-27.99 27.495 -27.99 27.495 -29 28 C-28.67 29.65 -28.34 31.3 -28 33 C-26.68 33 -25.36 33 -24 33 C-23.67 31.68 -23.34 30.36 -23 29 C-24.88316159 27.89163577 -24.88316159 27.89163577 -27 27 Z " transform="translate(63,0)" style="fill: #6C8A57;"/><path d="M0 0 C0.99 0.33 1.98 0.66 3 1 C2.67 2.65 2.34 4.3 2 6 C0.95199219 5.87431641 0.95199219 5.87431641 -0.1171875 5.74609375 C-1.02726562 5.64425781 -1.93734375 5.54242187 -2.875 5.4375 C-3.77992188 5.33308594 -4.68484375 5.22867187 -5.6171875 5.12109375 C-8.01653057 4.80325148 -8.01653057 4.80325148 -10 6 C-9.99914972 7.91325904 -9.99914972 7.91325904 -9 10 C-5.72654608 11.88751577 -2.35227814 13.37881427 1.09375 14.92578125 C4 17 4 17 4.94921875 20.5859375 C5.02085004 25.40176423 5.02085004 25.40176423 3 28 C-0.36078371 30.15830147 -3.11941178 30.24124718 -7.0625 30.1875 C-8.10535156 30.18105469 -9.14820313 30.17460938 -10.22265625 30.16796875 C-13 30 -13 30 -16 29 C-15.67 27.35 -15.34 25.7 -15 24 C-14.24074219 24.09539063 -13.48148437 24.19078125 -12.69921875 24.2890625 C-11.20841797 24.45535156 -11.20841797 24.45535156 -9.6875 24.625 C-8.70136719 24.74101563 -7.71523438 24.85703125 -6.69921875 24.9765625 C-3.77342584 25.25476995 -3.77342584 25.25476995 -1 23 C-1 22.01 -1 21.02 -1 20 C-1.84304688 19.59007813 -2.68609375 19.18015625 -3.5546875 18.7578125 C-4.65039062 18.21898438 -5.74609375 17.68015625 -6.875 17.125 C-8.51082031 16.32449219 -8.51082031 16.32449219 -10.1796875 15.5078125 C-13 14 -13 14 -15 12 C-15.40579125 7.80682376 -15.64590514 5.2302955 -13.6875 1.5 C-9.3670599 -0.91140843 -4.83904105 -0.45065878 0 0 Z " transform="translate(284,15)" style="fill: #334784;"/><path d="M0 0 C14 0 14 0 18 4 C19.74732935 7.4946587 19.56298471 11.18705807 19 15 C17.65626154 17.80331644 16.44149261 18.87696295 14 21 C9.97179794 22.23312308 8.14275236 22.03568809 4 21 C4 24.63 4 28.26 4 32 C2.68 32 1.36 32 0 32 C0 21.44 0 10.88 0 0 Z M4 5 C3.92755947 7.01964199 3.91622812 9.04167124 3.9375 11.0625 C3.94652344 12.16722656 3.95554687 13.27195312 3.96484375 14.41015625 C3.97644531 15.26480469 3.98804688 16.11945312 4 17 C7.20959534 17.80239884 9.25187355 18.29531307 12.375 17.0625 C14.54246571 14.31148582 14.40064962 12.3543001 14.3359375 8.9375 C14.07913353 6.68060065 14.07913353 6.68060065 12 4 C7.69266393 3.37198361 7.69266393 3.37198361 4 5 Z " transform="translate(293,24)" style="fill: #334784;"/><path d="M0 0 C1.32 0 2.64 0 4 0 C4 2.64 4 5.28 4 8 C4.67546875 7.95359375 5.3509375 7.9071875 6.046875 7.859375 C13.38159879 7.56259427 13.38159879 7.56259427 16.5625 9.8125 C19.21943229 13.85565784 19.32166733 17.25540684 19 22 C16.69767442 27.65116279 16.69767442 27.65116279 14 29 C9.38 29 4.76 29 0 29 C0 19.43 0 9.86 0 0 Z M4 12 C4 16.29 4 20.58 4 25 C8.67828491 26.36564406 8.67828491 26.36564406 11.8125 25.0625 C14.41146423 23.04128117 14.41146423 23.04128117 14.5625 19.0625 C14.3675045 16.03728404 14.0479456 15.06849372 12.25 12.5 C9.30844011 10.53896007 7.1958554 10.4020723 4 12 Z " transform="translate(138,16)" style="fill: #334784;"/><path d="M0 0 C0.96808594 -0.00257812 1.93617187 -0.00515625 2.93359375 -0.0078125 C5.5625 0.125 5.5625 0.125 8.5625 1.125 C8.5625 2.445 8.5625 3.765 8.5625 5.125 C7.74265625 5.10179687 6.9228125 5.07859375 6.078125 5.0546875 C5.00046875 5.03664063 3.9228125 5.01859375 2.8125 5 C1.74515625 4.97679687 0.6778125 4.95359375 -0.421875 4.9296875 C-3.39442535 5.12221019 -4.97999903 5.49612522 -7.4375 7.125 C-9.8818125 10.96606251 -9.68375636 14.67387157 -9.015625 19.03125 C-8.50731848 21.33369448 -8.50731848 21.33369448 -6.625 23.6875 C-1.67702415 25.91894009 3.21928106 25.43178769 8.5625 25.125 C8.8925 26.445 9.2225 27.765 9.5625 29.125 C3.31713787 30.78872352 -2.44956952 32.21513115 -8.4375 29.125 C-12.73971503 25.89130897 -14.73807671 22.44225191 -15.5 17.125 C-15.69909325 12.27302369 -14.9356125 9.28852084 -12.4375 5.125 C-8.19949492 1.19709286 -5.70522165 -0.01515331 0 0 Z " transform="translate(103.4375,14.875)" style="fill: #334883;"/><path d="M0 0 C2.5625 2.0625 2.5625 2.0625 4 5 C4.25 8.8125 4.25 8.8125 4 12 C-2.435 12.495 -2.435 12.495 -9 13 C-7.31115948 16.27017244 -7.31115948 16.27017244 -4.125 16.6875 C-0.8600729 17.06633581 -0.8600729 17.06633581 3 17 C3 18.32 3 19.64 3 21 C-7.67234043 21.76595745 -7.67234043 21.76595745 -12.25 19.125 C-14.72612541 14.70334748 -14.76529228 10.95811702 -14 6 C-11.06492031 -0.53722294 -6.70755648 -1.03651406 0 0 Z M-9 6 C-9 6.66 -9 7.32 -9 8 C-6.03 8 -3.06 8 0 8 C-1.3553326 5.46326712 -1.3553326 5.46326712 -3 3 C-5.79908133 3 -6.92722373 4.2035939 -9 6 Z " transform="translate(174,24)" style="fill: #324884;"/><path d="M0 0 C2.5625 2.0625 2.5625 2.0625 4 5 C4.25 8.8125 4.25 8.8125 4 12 C-2.435 12.495 -2.435 12.495 -9 13 C-7.31115948 16.27017244 -7.31115948 16.27017244 -4.125 16.6875 C-0.8600729 17.06633581 -0.8600729 17.06633581 3 17 C3 18.32 3 19.64 3 21 C1.08404032 21.08133791 -0.83291932 21.13934367 -2.75 21.1875 C-4.35101563 21.23970703 -4.35101563 21.23970703 -5.984375 21.29296875 C-9.34736544 20.96625336 -10.63641253 20.36910987 -13 18 C-14.69465856 12.91602433 -14.87399264 7.90689304 -12.625 3 C-9.36044418 -1.01791485 -4.83685578 -0.74743597 0 0 Z M-9 6 C-9 6.66 -9 7.32 -9 8 C-6.03 8 -3.06 8 0 8 C-1.3553326 5.46326712 -1.3553326 5.46326712 -3 3 C-5.79908133 3 -6.92722373 4.2035939 -9 6 Z " transform="translate(230,24)" style="fill: #324884;"/><path d="M0 0 C2.5625 2.0625 2.5625 2.0625 4 5 C4.25 8.8125 4.25 8.8125 4 12 C-2.435 12.495 -2.435 12.495 -9 13 C-5.67105193 17.08719047 -5.67105193 17.08719047 -2.859375 17.390625 C-0.90625 17.26041667 1.046875 17.13020833 3 17 C3 18.32 3 19.64 3 21 C-7.67234043 21.76595745 -7.67234043 21.76595745 -12.25 19.125 C-14.72612541 14.70334748 -14.76529228 10.95811702 -14 6 C-11.06492031 -0.53722294 -6.70755648 -1.03651406 0 0 Z M-6 3 C-8.29215045 4.79191032 -8.29215045 4.79191032 -10 7 C-10 7.33 -10 7.66 -10 8 C-7.03 8 -4.06 8 -1 8 C-1.33 6.68 -1.66 5.36 -2 4 C-3.78141747 3.13641377 -3.78141747 3.13641377 -6 3 Z " transform="translate(369,24)" style="fill: #334784;"/><path d="M0 0 C0.96808594 -0.03738281 1.93617188 -0.07476563 2.93359375 -0.11328125 C5.5625 0.3125 5.5625 0.3125 7.3984375 1.78515625 C9.12598867 5.53591333 8.88172182 8.989256 8.75 13.0625 C8.72969727 14.25166016 8.72969727 14.25166016 8.70898438 15.46484375 C8.67375223 17.41435564 8.61994821 19.36351626 8.5625 21.3125 C6.83527272 21.53634382 5.10553993 21.74089969 3.375 21.9375 C1.93060547 22.11152344 1.93060547 22.11152344 0.45703125 22.2890625 C-2.67825323 22.31444942 -4.63236535 21.65609283 -7.4375 20.3125 C-8.88302058 14.04857748 -8.88302058 14.04857748 -7 10.9375 C-3.44062876 8.68033775 -0.62698026 8.59179868 3.5625 8.3125 C3.2325 7.3225 2.9025 6.3325 2.5625 5.3125 C-0.4075 4.9825 -3.3775 4.6525 -6.4375 4.3125 C-6.7675 3.3225 -7.0975 2.3325 -7.4375 1.3125 C-4.86465862 0.02607931 -2.87221047 0.07247277 0 0 Z M-3.4375 13.3125 C-3.1075 14.9625 -2.7775 16.6125 -2.4375 18.3125 C1.17242379 17.65664811 1.17242379 17.65664811 4.5625 16.3125 C4.5625 14.9925 4.5625 13.6725 4.5625 12.3125 C0.42156302 12.10279441 0.42156302 12.10279441 -3.4375 13.3125 Z " transform="translate(323.4375,23.6875)" style="fill: #334686;"/><path d="M0 0 C1.65 0 3.3 0 5 0 C5.34933594 0.85464844 5.69867188 1.70929687 6.05859375 2.58984375 C6.51363281 3.69457031 6.96867187 4.79929687 7.4375 5.9375 C8.11619141 7.59072266 8.11619141 7.59072266 8.80859375 9.27734375 C9.74424608 11.86568916 9.74424608 11.86568916 11 13 C12.65 8.71 14.3 4.42 16 0 C17.65 0 19.3 0 21 0 C19.75665633 3.64813683 18.5041005 7.29304838 17.25 10.9375 C16.90195313 11.95908203 16.55390625 12.98066406 16.1953125 14.03320312 C14.07805504 20.16932891 11.76026289 26.12376066 9 32 C7.68 32 6.36 32 5 32 C6 26 6 26 6.75 23.4375 C7.11949981 18.35687764 5.34524643 14.33198774 3.5625 9.625 C3.22412109 8.69816406 2.88574219 7.77132813 2.53710938 6.81640625 C1.70376302 4.53937537 0.85785286 2.26788688 0 0 Z " transform="translate(114,24)" style="fill: #334784;"/><path d="M0 0 C2.8539415 0.51570196 4.09453984 1.02976099 5.90234375 3.34375 C6.8028619 6.06296166 7.13075289 8.48585027 6.90234375 11.34375 C5.00470876 14.91130378 3.81560093 16.05228494 -0.03515625 17.28125 C-3.35656824 17.34903392 -5.20484208 16.95086898 -8.09765625 15.34375 C-10.58924665 11.6063644 -10.5555891 9.77043417 -10.09765625 5.34375 C-7.61183995 0.47569309 -5.17987065 -0.38583767 0 0 Z M-3.09765625 5.34375 C-3.75765625 6.66375 -4.41765625 7.98375 -5.09765625 9.34375 C-4.43765625 10.00375 -3.77765625 10.66375 -3.09765625 11.34375 C-0.98944828 11.0252323 -0.98944828 11.0252323 0.90234375 10.34375 C0.57234375 8.69375 0.24234375 7.04375 -0.09765625 5.34375 C-1.08765625 5.34375 -2.07765625 5.34375 -3.09765625 5.34375 Z " transform="translate(61.09765625,21.65625)" style="fill: #6D8A57;"/><path d="M0 0 C3.63525215 2.60789828 4.83397068 4.0702358 5.625 8.5 C4.83397068 12.9297642 3.63525215 14.39210172 0 17 C-3.83305454 17.71869773 -5.43695612 17.32531424 -8.8125 15.375 C-11.48997956 12.4680222 -12 10.93559391 -12 7 C-9.42571259 1.3365677 -6.25590126 -0.87582618 0 0 Z M-4 5 C-4.66 5.66 -5.32 6.32 -6 7 C-5.6814823 9.10820797 -5.6814823 9.10820797 -5 11 C-3.35 10.67 -1.7 10.34 0 10 C-0.26676204 8.01508358 -0.26676204 8.01508358 -1 6 C-1.99 5.67 -2.98 5.34 -4 5 Z " transform="translate(40,0)" style="fill: #6E8958;"/><path d="M0 0 C1.53147486 3.06294972 1.67784189 4.86384344 1.125 8.25 C-0.87471712 11.12459336 -2.36439028 12.87907801 -5.84765625 13.734375 C-9.59389787 13.98645855 -11.51543025 13.55563428 -14.375 11.125 C-16.14239304 7.73749667 -16.5027457 6.0164742 -15.875 2.25 C-14.17731915 -0.47841565 -12.89293147 -2.24103426 -10 -3.6875 C-6.00260269 -3.80507051 -2.92087908 -2.72615381 0 0 Z M-8.875 2.25 C-9.535 3.57 -10.195 4.89 -10.875 6.25 C-10.215 6.91 -9.555 7.57 -8.875 8.25 C-6.76679203 7.9314823 -6.76679203 7.9314823 -4.875 7.25 C-5.205 5.6 -5.535 3.95 -5.875 2.25 C-6.865 2.25 -7.855 2.25 -8.875 2.25 Z " transform="translate(21.875,46.75)" style="fill: #6D8958;"/><path d="M0 0 C0.87785156 0.01546875 1.75570312 0.0309375 2.66015625 0.046875 C4.9375 0.25 4.9375 0.25 6.9375 1.25 C6.6075 2.24 6.2775 3.23 5.9375 4.25 C1.4825 4.745 1.4825 4.745 -3.0625 5.25 C-1.78054819 7.81390361 -0.72199394 7.95889498 1.875 9.0625 C4.70146305 10.43506299 5.79681354 11.04678622 7.625 13.6875 C7.9375 16.25 7.9375 16.25 6.9375 19 C4.9375 21.25 4.9375 21.25 2.25 22.1875 C-1.89067381 22.26562592 -5.09241179 21.41364654 -9.0625 20.25 C-8.7325 19.26 -8.4025 18.27 -8.0625 17.25 C-4.4325 17.25 -0.8025 17.25 2.9375 17.25 C2.9375 16.26 2.9375 15.27 2.9375 14.25 C2.31101563 14.05664062 1.68453125 13.86328125 1.0390625 13.6640625 C0.22179687 13.40367188 -0.59546875 13.14328125 -1.4375 12.875 C-2.65566406 12.49214844 -2.65566406 12.49214844 -3.8984375 12.1015625 C-6.0625 11.25 -6.0625 11.25 -8.0625 9.25 C-8.61842323 4.02432164 -8.61842323 4.02432164 -6.859375 1.57421875 C-4.46545001 -0.18999989 -2.94462596 -0.0867342 0 0 Z " transform="translate(205.0625,23.75)" style="fill: #324885;"/><path d="M0 0 C0.91007813 0.00902344 1.82015625 0.01804687 2.7578125 0.02734375 C3.45648438 0.03894531 4.15515625 0.05054687 4.875 0.0625 C5.205 0.7225 5.535 1.3825 5.875 2.0625 C5.545 2.7225 5.215 3.3825 4.875 4.0625 C2.84375 4.44140625 2.84375 4.44140625 0.375 4.625 C-2.67481525 4.6417263 -2.67481525 4.6417263 -5.125 6.0625 C-5.49552339 11.23985677 -5.49552339 11.23985677 -4.125 16.0625 C-1.99923218 16.52901207 -1.99923218 16.52901207 0.4375 16.6875 C1.26378906 16.76226562 2.09007812 16.83703125 2.94140625 16.9140625 C3.57949219 16.96304688 4.21757812 17.01203125 4.875 17.0625 C5.205 18.0525 5.535 19.0425 5.875 20.0625 C0.50826964 22.03395197 -2.6650847 22.47746253 -8.125 20.0625 C-11.15169142 16.74290296 -11.64897737 13.52816065 -11.48828125 9.0625 C-10.89038491 5.77085566 -9.22400954 3.59365856 -7.125 1.0625 C-4.60024538 -0.19987731 -2.81299534 -0.03606404 0 0 Z " transform="translate(248.125,23.9375)" style="fill: #334686;"/><path d="M0 0 C0.33 1.32 0.66 2.64 1 4 C0.37351562 4.03738281 -0.25296875 4.07476563 -0.8984375 4.11328125 C-2.12433594 4.21189453 -2.12433594 4.21189453 -3.375 4.3125 C-4.18710937 4.37050781 -4.99921875 4.42851562 -5.8359375 4.48828125 C-8.37921338 4.82990528 -8.37921338 4.82990528 -10 8 C-9.91832511 11.57176115 -9.91832511 11.57176115 -9 15 C-5.3558226 17.4294516 -3.28758728 17.16179575 1 17 C1 18.32 1 19.64 1 21 C-4.91407936 22.32765047 -7.8309358 21.8379176 -13 19 C-15.84944623 14.72583066 -15.72272498 11.01244742 -15 6 C-12.27803272 -1.03290022 -6.51355563 -0.68297476 0 0 Z " transform="translate(351,24)" style="fill: #334883;"/><path d="M0 0 C4.29 0 8.58 0 13 0 C12.67 1.32 12.34 2.64 12 4 C9.69 4.33 7.38 4.66 5 5 C4.67 10.28 4.34 15.56 4 21 C2.68 21 1.36 21 0 21 C0 14.07 0 7.14 0 0 Z " transform="translate(182,24)" style="fill: #334783;"/></svg>